<svg width="50" height="50" viewBox="0 0 50 50" fill="none" xmlns="http://www.w3.org/2000/svg">
<mask id="mask0_321_17" style="mask-type:luminance" maskUnits="userSpaceOnUse" x="0" y="0" width="50" height="50">
<path d="M50 0H0V50H50V0Z" fill="white"/>
</mask>
<g mask="url(#mask0_321_17)">
<path d="M7.38054 18.4204C4.18055 9.7774 7.82498 6.17617 9.60275 5.27586C8.6783 10.7497 9.21755 10.9778 9.60275 10.4076C9.95832 6.80637 14.0472 3.74534 15.4694 3.02507C14.1894 6.26619 15.2324 7.91676 15.9139 8.33691C15.736 5.00576 20.3583 0.504241 21.0694 1.04441C21.2116 3.56527 24.6249 5.15581 26.3137 5.63599L25.1583 3.74534C46.847 9.68737 40.0026 18.4204 41.4249 19.7709C43.8426 22.6519 42.3137 29.4941 41.247 32.5551C41.0396 32.6153 40.5537 32.6993 40.2693 32.5551C39.9849 32.5551 38.0174 25.6529 37.0693 22.2017C23.9139 27.1533 13.0694 22.6519 11.4694 22.2017C8.26944 32.2851 8.44721 32.1951 8.18054 32.5551C7.96721 32.8433 7.55833 32.6753 7.38054 32.5551C3.9139 25.7129 6.8472 22.7419 7.38054 18.4204Z" fill="#282828"/>
<path fill-rule="evenodd" clip-rule="evenodd" d="M6.9036 37.1727C6.76083 37.0281 6.84411 35.3667 6.9036 34.5541C13.4964 33.705 16.8687 34.3631 19.8326 34.9416C21.2815 35.2243 22.6327 35.488 24.2149 35.5473C24.5199 35.6596 25.0492 35.5713 26.033 35.407C28.2143 35.0427 32.6306 34.3051 41.7937 34.5541C43.15 34.6263 42.8347 36.5707 42.5076 37.5339C41.1519 37.9797 40.8905 39.3244 40.5936 40.8504C40.1092 43.3423 39.5306 46.3177 33.9412 46.6536C28.4287 46.6536 27.384 43.4199 26.6272 41.0773C26.1835 39.7037 25.8386 38.6366 24.7502 38.7077C23.7549 38.7727 23.4065 39.8196 22.9693 41.1334C22.1915 43.4711 21.1325 46.6536 15.6485 46.6536C10.0655 46.4771 9.33394 43.5391 8.66173 40.8393C8.3025 39.3964 7.96021 38.0217 6.9036 37.1727ZM20.6456 36.9017C17.8615 34.5903 13.1202 35.6677 11.0976 36.4503C7.08211 44.1254 15.5593 46.3827 18.4147 45.209C19.1286 45.0283 23.7687 39.7009 20.6456 36.9017ZM30.1043 36.0891C30.1043 36.0891 32.692 35.3667 37.4213 35.9086C37.9567 35.9386 39.081 36.342 39.2953 37.7144C39.5629 39.43 39.4737 43.4933 36.529 44.938C33.5843 46.3827 28.9442 45.3896 27.9626 40.1524C27.9626 36.4503 29.8366 36.0957 30.1043 36.0891Z" fill="#282828"/>
<path d="M6.9036 34.5541L6.90178 34.5399L6.8902 34.5414L6.88936 34.553L6.9036 34.5541ZM6.9036 37.1727L6.89338 37.1827L6.89466 37.1839L6.9036 37.1727ZM24.2149 35.5473L24.2197 35.534L24.2176 35.5331L24.2153 35.533L24.2149 35.5473ZM41.7937 34.5541L41.7945 34.5399H41.7942L41.7937 34.5541ZM42.5076 37.5339L42.512 37.5474L42.5189 37.5451L42.5212 37.5384L42.5076 37.5339ZM33.9412 46.6536V46.668L33.942 46.6679L33.9412 46.6536ZM15.6485 46.6536L15.648 46.6679H15.6485V46.6536ZM11.0976 36.4503L11.0925 36.437L11.0874 36.439L11.0849 36.4437L11.0976 36.4503ZM20.6456 36.9017L20.655 36.8911L20.6546 36.8909L20.6456 36.9017ZM18.4147 45.209L18.4112 45.1951L18.4102 45.1953L18.4093 45.1957L18.4147 45.209ZM37.4213 35.9086L37.4197 35.9227L37.4206 35.9229L37.4213 35.9086ZM30.1043 36.0891L30.1046 36.1034L30.1063 36.1033L30.108 36.1029L30.1043 36.0891ZM27.9626 40.1524H27.9483V40.1537L27.9486 40.155L27.9626 40.1524ZM6.88936 34.553C6.8596 34.9596 6.82389 35.5783 6.81348 36.1137C6.80826 36.3813 6.80938 36.6283 6.82075 36.8177C6.82643 36.9123 6.8347 36.9929 6.84613 37.0546C6.85183 37.0854 6.8584 37.1119 6.86596 37.1331C6.87342 37.1541 6.88225 37.1714 6.89338 37.1827L6.91376 37.1626C6.90705 37.1559 6.89986 37.1433 6.89289 37.1236C6.88602 37.1043 6.87978 37.0794 6.87422 37.0494C6.8631 36.9894 6.85492 36.9101 6.84928 36.816C6.83796 36.6277 6.83683 36.3816 6.84205 36.1143C6.85245 35.5796 6.88812 34.9613 6.91786 34.5551L6.88936 34.553ZM19.8355 34.9276C16.8707 34.349 13.4967 33.6906 6.90178 34.5399L6.90543 34.5683C13.4962 33.7194 16.8669 34.3774 19.8299 34.9556L19.8355 34.9276ZM24.2153 35.533C22.6345 35.4739 21.2843 35.2103 19.8355 34.9276L19.8299 34.9556C21.2786 35.2383 22.6309 35.5023 24.2143 35.5616L24.2153 35.533ZM26.0306 35.3929C25.5385 35.475 25.1607 35.5381 24.868 35.5666C24.5749 35.5951 24.369 35.5889 24.2197 35.534L24.2099 35.5607C24.3657 35.6181 24.577 35.6237 24.8707 35.595C25.1647 35.5664 25.5436 35.5031 26.0353 35.421L26.0306 35.3929ZM41.7942 34.5399C32.6299 34.2909 28.2127 35.0284 26.0306 35.3929L26.0353 35.421C28.216 35.0569 32.6313 34.3194 41.7933 34.5684L41.7942 34.5399ZM42.5212 37.5384C42.685 37.056 42.8463 36.327 42.7962 35.7087C42.7712 35.3996 42.6933 35.1166 42.5349 34.9061C42.3762 34.695 42.1375 34.5581 41.7945 34.5399L41.793 34.5684C42.1282 34.5861 42.3587 34.7194 42.512 34.9233C42.6659 35.1277 42.743 35.4047 42.7677 35.711C42.8173 36.3239 42.6573 37.0486 42.494 37.5293L42.5212 37.5384ZM40.6077 40.8531C40.7562 40.0897 40.8955 39.3739 41.1665 38.7931C41.4372 38.2131 41.8387 37.7689 42.512 37.5474L42.5032 37.5203C41.8207 37.7447 41.4137 38.1956 41.1406 38.781C40.8677 39.3656 40.7279 40.0851 40.5796 40.8477L40.6077 40.8531ZM33.942 46.6679C36.7393 46.4997 38.2856 45.6709 39.1927 44.5696C40.0993 43.469 40.3655 42.0986 40.6077 40.8531L40.5796 40.8477C40.3373 42.0941 40.0719 43.4573 39.1707 44.5514C38.2702 45.6447 36.7325 46.4716 33.9403 46.6394L33.942 46.6679ZM26.6136 41.0817C26.9919 42.2526 27.443 43.6497 28.4905 44.7537C29.5386 45.8584 31.1819 46.6679 33.9412 46.6679V46.6393C31.188 46.6393 29.5529 45.832 28.5112 44.7341C27.4689 43.6356 27.0193 42.2446 26.6407 41.0729L26.6136 41.0817ZM24.7512 38.7219C25.0207 38.7043 25.2435 38.7571 25.4332 38.8671C25.6229 38.9771 25.7805 39.145 25.9185 39.3586C26.1949 39.7861 26.3915 40.3943 26.6136 41.0817L26.6407 41.0729C26.4192 40.3867 26.2215 39.7746 25.9425 39.343C25.8027 39.127 25.6423 38.9554 25.4475 38.8424C25.2525 38.7293 25.0239 38.6754 24.7493 38.6934L24.7512 38.7219ZM22.9829 41.138C23.2016 40.4806 23.3975 39.8921 23.6626 39.4597C23.9273 39.0281 24.2596 38.754 24.7512 38.7219L24.7493 38.6934C24.2455 38.7263 23.9059 39.0081 23.6383 39.4447C23.371 39.8806 23.1742 40.4726 22.9557 41.129L22.9829 41.138ZM15.6485 46.6679C18.3935 46.6679 20.0333 45.8713 21.084 44.7801C22.134 43.6896 22.594 42.3064 22.9829 41.138L22.9557 41.129C22.5667 42.2981 22.1083 43.6751 21.0635 44.7603C20.0192 45.8447 18.3875 46.6393 15.6485 46.6393V46.6679ZM8.64786 40.8427C8.98383 42.192 9.33538 43.605 10.3028 44.7021C11.271 45.8 12.8539 46.5796 15.648 46.6679L15.6489 46.6394C12.8599 46.5511 11.2856 45.7734 10.3243 44.6833C9.36218 43.5923 9.01185 42.1863 8.67559 40.8357L8.64786 40.8427ZM6.89466 37.1839C7.94683 38.0293 8.28835 39.3987 8.64786 40.8427L8.67559 40.8357C8.31668 39.3943 7.97362 38.0141 6.91256 37.1616L6.89466 37.1839ZM11.1028 36.4637C12.1129 36.0729 13.8024 35.6081 15.5866 35.53C17.3712 35.4519 19.2483 35.7603 20.6365 36.9127L20.6546 36.8909C19.2587 35.7317 17.3732 35.4231 15.5855 35.5014C13.7974 35.5799 12.1049 36.0453 11.0925 36.437L11.1028 36.4637ZM18.4093 45.1957C17.6986 45.4879 16.6363 45.567 15.5042 45.4009C14.3725 45.2346 13.1727 44.8233 12.1877 44.1363C11.2029 43.4494 10.433 42.4871 10.1593 41.2189C9.88552 39.9504 10.1075 38.3737 11.1103 36.457L11.0849 36.4437C10.08 38.3646 9.8558 39.9481 10.1314 41.2249C10.407 42.5017 11.182 43.4696 12.1714 44.1597C13.1607 44.8497 14.3647 45.2623 15.5 45.429C16.635 45.5957 17.703 45.517 18.4202 45.2221L18.4093 45.1957ZM20.636 36.9124C21.4133 37.6091 21.7076 38.4629 21.7006 39.3551C21.6937 40.248 21.3852 41.1799 20.9563 42.0309C20.5275 42.8819 19.9787 43.6513 19.4927 44.2191C19.2497 44.503 19.0226 44.7364 18.8342 44.9043C18.7399 44.9883 18.6555 45.0557 18.5836 45.1049C18.5116 45.1543 18.4533 45.1844 18.4112 45.1951L18.4182 45.2229C18.4653 45.2109 18.527 45.1783 18.5997 45.1284C18.6729 45.0783 18.7583 45.0101 18.8532 44.9256C19.0429 44.7567 19.2709 44.5223 19.5145 44.2377C20.0017 43.6684 20.5517 42.8971 20.9817 42.0437C21.4117 41.1906 21.7222 40.2543 21.7292 39.3554C21.7362 38.4559 21.4393 37.594 20.655 36.8911L20.636 36.9124ZM37.423 35.8943C35.0573 35.6233 33.227 35.6684 31.988 35.7814C31.3685 35.8379 30.8967 35.9113 30.5799 35.9707C30.4215 36.0003 30.3016 36.0264 30.2215 36.0453C30.1813 36.0546 30.1512 36.0621 30.1309 36.0673C30.1207 36.0699 30.1132 36.0719 30.1082 36.0733C30.1056 36.074 30.1036 36.0744 30.1023 36.0749C30.1017 36.075 30.1013 36.0751 30.1009 36.0751C30.1007 36.0753 30.1006 36.0753 30.1006 36.0753C30.1006 36.0753 30.1005 36.0753 30.1043 36.0891C30.108 36.1029 30.108 36.1029 30.1082 36.1029C30.1083 36.1029 30.1083 36.1029 30.1085 36.1027C30.1089 36.1027 30.1093 36.1026 30.1099 36.1024C30.1112 36.102 30.113 36.1016 30.1155 36.1009C30.1205 36.0996 30.128 36.0976 30.138 36.095C30.158 36.0899 30.188 36.0824 30.2279 36.073C30.3077 36.0544 30.427 36.0283 30.5852 35.9987C30.9012 35.9396 31.372 35.8663 31.9906 35.8099C33.2277 35.6971 35.056 35.652 37.4197 35.9227L37.423 35.8943ZM39.3093 37.7123C39.0939 36.3309 37.9616 35.9246 37.4222 35.8943L37.4206 35.9229C37.9519 35.9527 39.0683 36.3531 39.2812 37.7166L39.3093 37.7123ZM36.5353 44.9509C38.0129 44.226 38.7732 42.8444 39.1306 41.4313C39.4882 40.0183 39.4435 38.5716 39.3093 37.7123L39.2812 37.7166C39.4147 38.573 39.4593 40.0157 39.1029 41.4243C38.7466 42.8329 37.9899 44.2054 36.5227 44.9251L36.5353 44.9509ZM27.9486 40.155C28.4402 42.7779 29.8485 44.3396 31.5039 45.064C33.1587 45.7881 35.0595 45.675 36.5353 44.9509L36.5227 44.9251C35.054 45.6459 33.1622 45.7584 31.5155 45.0379C29.8693 44.3174 28.4667 42.764 27.9767 40.1497L27.9486 40.155ZM30.1039 36.0749C29.9666 36.0783 29.4273 36.1699 28.9225 36.7253C28.4175 37.281 27.9483 38.299 27.9483 40.1524H27.9769C27.9769 38.3037 28.4447 37.2934 28.9436 36.7446C29.4426 36.1956 29.9742 36.1066 30.1046 36.1034L30.1039 36.0749Z" fill="#260F0F"/>
</g>
</svg>
